<svg xmlns="http://www.w3.org/2000/svg" width="132" height="27" viewBox="0 0 132 27">
    <g fill="none" fill-rule="nonzero">
        <path fill="#3D3D3F" d="M1.81 11.689c0 .484.12.841.362 1.072.242.231.474.347.693.347.22 0 .418-.022.594-.066 1.65-.528 3.113-.792 4.39-.792 1.495 0 2.607.313 3.332.94.727.627 1.09 1.678 1.09 3.152v.264H8.277c-2.485 0-4.4.506-5.741 1.518-1.232.924-1.849 2.2-1.849 3.828 0 1.496.528 2.706 1.585 3.63 1.012.88 2.276 1.32 3.794 1.32 1.54 0 2.811-.264 3.812-.792s1.799-1.1 2.393-1.716v.858c0 .418.143.77.428 1.056.287.286.639.429 1.056.429a1.49 1.49 0 0 0 1.073-.43c.297-.285.446-.637.446-1.055v-9.34c0-1.781-.55-3.266-1.65-4.454-1.232-1.364-2.97-2.046-5.215-2.046-1.98 0-3.894.396-5.742 1.188-.571.242-.857.605-.857 1.089zm3.2 7.92c.88-.396 2.102-.594 3.664-.594h3.597v2.772c-.573.638-1.304 1.21-2.195 1.716a5.75 5.75 0 0 1-2.888.759c-2.332 0-3.497-.88-3.497-2.64 0-.946.44-1.617 1.32-2.013zm41.053 3.564l-3.829-12.408a1.658 1.658 0 0 0-.61-.858 1.648 1.648 0 0 0-1.007-.33c-.373 0-.709.11-1.006.33-.297.22-.5.506-.61.858l-3.828 12.408-3.862-12.705c-.175-.594-.648-.891-1.419-.891a1.36 1.36 0 0 0-.99.429c-.286.286-.428.577-.428.874 0 .297.032.545.099.743l4.685 13.728c.133.374.374.698.726.973a1.88 1.88 0 0 0 1.188.413c.44 0 .837-.138 1.189-.413.34-.26.602-.607.759-1.006l3.498-10.923 3.497 10.923c.157.399.42.747.76 1.006a1.88 1.88 0 0 0 1.188.413c.44 0 .835-.138 1.188-.413.352-.275.593-.6.726-.973l4.686-13.728c.072-.24.105-.491.099-.743 0-.297-.144-.588-.43-.874a1.36 1.36 0 0 0-.99-.43c-.77 0-1.242.298-1.419.892l-3.86 12.705zm19.766-11.484c0 .484.122.841.364 1.072.242.231.472.347.692.347.22 0 .418-.022.594-.066 1.65-.528 3.114-.792 4.39-.792 1.496 0 2.606.313 3.332.94.727.627 1.09 1.678 1.09 3.152v.264h-3.993c-2.487 0-4.4.506-5.743 1.518-1.232.924-1.848 2.2-1.848 3.828 0 1.496.529 2.706 1.585 3.63 1.011.88 2.276 1.32 3.794 1.32 1.54 0 2.811-.264 3.812-.792s1.799-1.1 2.392-1.716v.858c0 .418.143.77.43 1.056.285.286.638.429 1.055.429a1.49 1.49 0 0 0 1.073-.43c.297-.285.445-.637.445-1.055v-9.34c0-1.781-.55-3.266-1.65-4.454-1.231-1.364-2.97-2.046-5.213-2.046-1.98 0-3.895.396-5.743 1.188-.572.242-.858.605-.858 1.089zm3.202 7.92c.88-.396 2.1-.594 3.662-.594h3.597v2.772c-.572.638-1.303 1.21-2.194 1.716a5.75 5.75 0 0 1-2.888.759c-2.332 0-3.498-.88-3.498-2.64 0-.946.44-1.617 1.32-2.013zm28.247-8.514c0-.418-.148-.776-.445-1.073a1.464 1.464 0 0 0-1.073-.445c-.418 0-.77.148-1.056.445a1.49 1.49 0 0 0-.428 1.073v14.157c0 .418.142.77.428 1.056.287.286.639.429 1.056.429.417 0 .776-.143 1.073-.43.297-.285.445-.637.445-1.055V15.22a7.014 7.014 0 0 1 2.162-2.096c.869-.539 1.852-.808 2.954-.808h.164c.44 0 .803-.127 1.09-.38.285-.253.428-.594.428-1.023 0-.429-.137-.786-.412-1.072a1.386 1.386 0 0 0-1.04-.43h-.164c-1.914 0-3.641 1.035-5.181 3.103v-1.42zm21.715 8.118h11.186c.463 0 .83-.143 1.106-.43a1.47 1.47 0 0 0 .412-1.055c0-2.31-.672-4.246-2.012-5.808-1.432-1.672-3.379-2.508-5.843-2.508-2.596 0-4.598.902-6.004 2.706-1.254 1.606-1.881 3.619-1.881 6.039 0 2.794.746 4.95 2.244 6.468 1.494 1.518 3.597 2.277 6.303 2.277 1.296 0 2.441-.143 3.431-.43a8.948 8.948 0 0 0 1.221-.461c.373-.176.797-.39 1.271-.644.472-.253.71-.665.71-1.237 0-.308-.132-.583-.397-.825-.264-.242-.54-.363-.825-.363-.287 0-.628.099-1.022.297-1.144.572-2.564.858-4.258.858-1.695 0-3.015-.44-3.96-1.32-.945-.88-1.507-2.068-1.682-3.564zm8.019-6.138c1.055.902 1.626 2.134 1.715 3.696h-9.734c.044-.858.23-1.595.56-2.211.903-1.738 2.331-2.607 4.29-2.607 1.233 0 2.287.374 3.168 1.122z"/>
        <path fill="#FF7F24" d="M40.684.447a2.75 2.75 0 1 1 .124 5.498 2.75 2.75 0 0 1-.124-5.498"/>
    </g>
</svg>
